<mxfile host="app.diagrams.net" modified="2023-10-24T10:17:49.106Z" agent="Mozilla/5.0 (Windows NT 10.0; Win64; x64) AppleWebKit/537.36 (KHTML, like Gecko) Chrome/118.0.0.0 Safari/537.36 Edg/118.0.2088.61" etag="K_xSVETalBAjS6hUZXaO" version="22.0.6" type="device">
  <diagram name="Page-1" id="chGTg3cvQh44gk6umUJp">
    <mxGraphModel dx="2261" dy="835" grid="1" gridSize="10" guides="1" tooltips="1" connect="1" arrows="1" fold="1" page="1" pageScale="1" pageWidth="827" pageHeight="1169" math="0" shadow="0">
      <root>
        <mxCell id="0" />
        <mxCell id="1" parent="0" />
        <mxCell id="d6XgB5v7hh9zlviuiuRJ-13" value="001011011001101000101010" style="html=1;shadow=0;dashed=0;align=center;verticalAlign=middle;shape=mxgraph.arrows2.arrow;dy=0.6;dx=40;notch=0;fillColor=#dae8fc;strokeColor=#6c8ebf;" vertex="1" parent="1">
          <mxGeometry y="365" width="170" height="70" as="geometry" />
        </mxCell>
        <mxCell id="d6XgB5v7hh9zlviuiuRJ-5" value="" style="verticalLabelPosition=bottom;verticalAlign=top;html=1;shape=mxgraph.infographic.cylinder;fillColor=#d5e8d4;strokeColor=#82b366;rotation=90;" vertex="1" parent="1">
          <mxGeometry x="322.5" y="202.5" width="80" height="395" as="geometry" />
        </mxCell>
        <mxCell id="d6XgB5v7hh9zlviuiuRJ-11" value="Data&lt;br&gt;Source" style="rounded=1;whiteSpace=wrap;html=1;fillColor=#dae8fc;strokeColor=#6c8ebf;" vertex="1" parent="1">
          <mxGeometry x="-80" y="360" width="80" height="80" as="geometry" />
        </mxCell>
        <mxCell id="d6XgB5v7hh9zlviuiuRJ-14" value="101001001001011011010101011" style="html=1;shadow=0;dashed=0;align=center;verticalAlign=middle;shape=mxgraph.arrows2.arrow;dy=0.6;dx=40;notch=0;fillColor=#dae8fc;strokeColor=#6c8ebf;" vertex="1" parent="1">
          <mxGeometry x="540" y="365" width="184" height="70" as="geometry" />
        </mxCell>
        <mxCell id="d6XgB5v7hh9zlviuiuRJ-12" value="Data&lt;br&gt;Destination" style="rounded=1;whiteSpace=wrap;html=1;fillColor=#dae8fc;strokeColor=#6c8ebf;" vertex="1" parent="1">
          <mxGeometry x="720" y="360" width="80" height="80" as="geometry" />
        </mxCell>
      </root>
    </mxGraphModel>
  </diagram>
</mxfile>
